<?xml version="1.0" standalone="no"?>
<!DOCTYPE svg PUBLIC "-//W3C//DTD SVG 20010904//EN"
 "http://www.w3.org/TR/2001/REC-SVG-20010904/DTD/svg10.dtd">
<svg version="1.0" xmlns="http://www.w3.org/2000/svg"
 width="210.000000pt" height="210.000000pt" viewBox="0 0 210.000000 210.000000"
 preserveAspectRatio="xMidYMid meet">
<metadata>
Created by potrace 1.14, written by Peter Selinger 2001-2017
</metadata>
<g transform="translate(0.000000,210.000000) scale(0.100000,-0.100000)"
fill="#000000" stroke="none">
<path d="M0 1075 l0 -185 35 0 c40 0 38 -11 35 160 l-1 105 28 -25 c15 -14 30
-28 33 -32 10 -13 55 -25 72 -19 10 3 33 21 53 39 l35 34 0 -132 0 -131 38 3
37 3 2 183 2 182 -40 0 c-35 0 -48 -7 -92 -50 -28 -27 -54 -50 -57 -50 -3 0
-28 23 -55 50 -42 43 -55 50 -87 50 l-38 0 0 -185z"/>
<path d="M442 1078 l3 -183 179 -3 c108 -1 182 1 186 7 3 6 5 88 5 183 l0 173
-188 3 -187 2 2 -182z m294 0 c2 -107 2 -108 -22 -109 -110 -4 -187 -3 -191 4
-5 8 -7 111 -4 188 l1 26 108 -1 107 -1 1 -107z"/>
<path d="M862 1225 c-2 -39 1 -39 106 -35 l42 2 0 -152 0 -151 38 3 37 3 3
148 3 148 32 -1 c17 -1 51 -2 74 -1 40 1 41 2 39 34 l-3 32 -185 3 -185 2 -1
-35z"/>
<path d="M1284 1078 l1 -183 185 0 185 0 0 180 0 180 -186 3 -186 2 1 -182z
m294 0 c2 -98 1 -108 -15 -109 -26 -1 -176 -1 -190 0 -10 1 -13 29 -13 104 0
57 3 106 6 109 3 4 51 6 107 5 l102 -2 3 -107z"/>
<path d="M1730 1075 l0 -185 41 0 40 0 -1 58 c-1 31 -1 90 -1 130 l1 73 35
-36 c48 -47 89 -48 139 -1 20 19 37 34 37 33 1 -1 3 -56 4 -122 1 -66 3 -123
4 -127 0 -5 17 -8 36 -8 l35 0 0 185 0 185 -40 0 c-34 0 -46 -7 -89 -50 -27
-27 -53 -50 -56 -50 -4 0 -30 23 -57 50 -43 43 -55 50 -89 50 l-39 0 0 -185z"/>
</g>
</svg>
